<?xml version="1.0" standalone="no"?>
<!DOCTYPE svg PUBLIC "-//W3C//DTD SVG 20010904//EN"
 "http://www.w3.org/TR/2001/REC-SVG-20010904/DTD/svg10.dtd">
<svg version="1.0" xmlns="http://www.w3.org/2000/svg"
 width="646.000000pt" height="646.000000pt" viewBox="0 0 646.000000 646.000000"
 preserveAspectRatio="xMidYMid meet">
<metadata>
Created by potrace 1.11, written by Peter Selinger 2001-2013
</metadata>
<g transform="translate(0.000000,646.000000) scale(0.100000,-0.100000)"
fill="#000000" stroke="none">
<path d="M3186 6172 c-4 -3 -130 -11 -228 -14 -27 -1 -48 -5 -48 -9 0 -4 -15
-6 -32 -5 -18 2 -37 0 -43 -3 -5 -3 -21 -7 -35 -8 -14 -1 -38 -5 -55 -8 -16
-4 -40 -8 -52 -8 -13 -1 -23 -5 -23 -10 0 -5 -6 -7 -14 -4 -7 3 -19 0 -26 -6
-10 -9 -11 -9 -5 2 6 10 4 12 -6 5 -16 -9 -35 -15 -61 -17 -10 -1 -18 -4 -18
-7 0 -5 -18 -9 -57 -12 -7 -1 -13 -6 -13 -11 0 -5 -7 -7 -15 -4 -8 4 -17 2
-20 -4 -4 -5 -11 -7 -16 -4 -5 4 -9 2 -9 -2 0 -5 -12 -10 -26 -11 -15 -1 -33
-7 -40 -13 -8 -6 -14 -8 -14 -4 0 4 -6 2 -13 -4 -8 -6 -17 -8 -20 -4 -4 3 -7
1 -7 -6 0 -8 -7 -10 -21 -6 -16 5 -19 4 -14 -6 6 -9 3 -11 -8 -6 -10 3 -17 2
-17 -4 0 -6 -4 -7 -10 -4 -5 3 -10 1 -10 -5 0 -6 -4 -9 -8 -6 -5 3 -23 -4 -41
-15 -17 -10 -43 -20 -56 -21 -13 -1 -22 -5 -19 -9 2 -4 -3 -10 -12 -13 -10 -4
-13 -2 -9 7 4 6 0 4 -8 -5 -8 -10 -17 -15 -20 -11 -4 3 -7 1 -7 -6 0 -7 -4 -9
-10 -6 -5 3 -10 2 -10 -3 0 -6 -7 -13 -16 -16 -10 -4 -13 -2 -8 7 4 6 -4 2
-17 -9 -35 -31 -74 -50 -64 -32 3 7 -1 4 -9 -6 -9 -11 -16 -16 -16 -10 0 5 -5
1 -11 -8 -5 -9 -16 -15 -24 -12 -8 4 -18 -1 -21 -10 -3 -9 -10 -13 -15 -10 -5
3 -9 1 -9 -5 0 -6 -10 -15 -21 -22 -17 -9 -20 -8 -14 3 4 7 -3 2 -15 -12 -12
-14 -19 -18 -15 -10 4 10 1 9 -8 -2 -8 -10 -18 -18 -22 -18 -4 0 -14 -8 -22
-17 -9 -12 -12 -13 -8 -3 4 8 -3 4 -15 -10 -12 -14 -18 -18 -14 -10 4 9 -2 7
-14 -5 -35 -34 -52 -46 -52 -39 0 4 -10 -5 -23 -19 -12 -15 -26 -27 -31 -27
-4 0 -17 -10 -28 -22 -11 -13 -16 -16 -12 -8 4 8 -3 5 -15 -7 -12 -13 -26 -23
-32 -23 -6 0 -7 -4 -4 -10 3 -5 -1 -10 -9 -10 -9 0 -16 -5 -16 -11 0 -5 -4 -7
-10 -4 -5 3 -10 -1 -10 -10 0 -9 -4 -13 -10 -10 -5 3 -10 0 -10 -8 0 -8 -8
-21 -17 -28 -17 -13 -17 -12 -4 6 8 11 -6 -1 -30 -27 -25 -27 -50 -48 -57 -48
-7 0 -11 -3 -9 -7 6 -10 -19 -34 -27 -26 -3 4 -6 1 -6 -5 0 -7 -21 -33 -47
-59 -26 -27 -48 -52 -48 -56 0 -5 -16 -22 -35 -39 -19 -16 -29 -26 -21 -22 9
5 12 3 7 -4 -4 -7 -14 -12 -22 -12 -8 0 -12 -4 -9 -10 3 -5 2 -10 -4 -10 -5 0
-13 -9 -16 -20 -4 -11 -10 -18 -15 -15 -5 3 -11 -3 -14 -13 -8 -24 -52 -83
-57 -77 -3 2 -11 -6 -18 -18 -13 -21 -13 -21 5 -8 10 8 7 2 -8 -13 -16 -15
-28 -34 -28 -42 0 -8 -4 -12 -10 -9 -5 3 -10 -3 -10 -14 0 -11 -8 -25 -17 -30
-10 -6 -14 -11 -9 -11 6 0 1 -7 -10 -16 -10 -8 -12 -13 -4 -9 8 4 4 -3 -10
-15 -14 -12 -18 -18 -10 -14 8 5 -1 -12 -20 -36 -19 -24 -28 -41 -20 -36 9 4
8 2 -2 -7 -10 -8 -15 -17 -11 -20 3 -4 1 -7 -6 -7 -7 0 -9 -4 -6 -10 3 -5 1
-10 -4 -10 -6 0 -11 -7 -11 -15 0 -8 -4 -15 -10 -15 -5 0 -6 -7 -3 -17 4 -10
2 -14 -4 -10 -12 8 -26 -20 -17 -34 3 -5 0 -9 -6 -9 -6 0 -8 -4 -5 -10 3 -5 1
-10 -5 -10 -6 0 -8 -5 -5 -10 3 -6 -1 -13 -10 -16 -9 -4 -14 -13 -11 -20 3 -8
1 -14 -4 -14 -6 0 -9 -3 -8 -7 1 -5 -3 -18 -10 -29 -6 -12 -8 -24 -5 -28 3 -3
1 -6 -6 -6 -7 0 -9 -4 -6 -10 3 -5 1 -10 -5 -10 -6 0 -9 -4 -5 -9 3 -5 1 -12
-5 -16 -6 -4 -8 -11 -5 -16 4 -5 1 -9 -5 -9 -6 0 -8 -4 -5 -10 3 -5 1 -10 -6
-10 -7 0 -9 -3 -6 -7 4 -3 0 -17 -9 -31 -9 -13 -11 -21 -5 -17 6 3 2 -10 -9
-30 -11 -20 -15 -33 -8 -29 10 6 11 5 1 -8 -7 -8 -10 -18 -6 -21 3 -4 1 -7 -6
-7 -7 0 -11 -6 -9 -12 3 -7 -1 -24 -8 -37 -7 -14 -11 -28 -8 -33 3 -4 1 -8 -3
-8 -8 0 -13 -19 -16 -62 -1 -10 -4 -18 -7 -18 -5 0 -9 -18 -12 -57 -1 -7 -4
-13 -8 -13 -3 0 -7 -10 -7 -22 -2 -42 -7 -68 -13 -68 -3 0 -6 -17 -8 -38 -2
-37 -9 -77 -12 -77 -1 0 -3 -16 -5 -35 -1 -19 -5 -60 -10 -90 -15 -113 -21
-416 -10 -535 7 -80 16 -157 22 -195 3 -19 7 -44 8 -55 1 -11 5 -36 9 -55 4
-19 8 -42 10 -50 2 -12 22 -107 31 -145 1 -5 5 -17 8 -25 3 -8 15 -49 27 -90
11 -41 27 -91 35 -111 8 -20 11 -39 8 -43 -4 -3 -1 -6 5 -6 7 0 12 -6 12 -14
0 -31 119 -288 192 -414 62 -109 179 -284 196 -295 6 -4 12 -12 12 -17 0 -9
25 -42 60 -79 8 -9 31 -37 50 -61 40 -51 233 -245 304 -305 26 -22 61 -52 77
-67 16 -15 29 -24 29 -21 0 4 9 -2 19 -14 11 -11 37 -31 58 -44 21 -13 44 -29
52 -37 24 -24 175 -119 204 -128 9 -4 17 -10 17 -15 0 -5 6 -9 14 -9 8 0 16
-3 18 -8 2 -4 30 -20 63 -35 33 -15 59 -32 57 -38 -1 -6 2 -8 8 -4 6 3 35 -5
65 -19 29 -14 57 -26 60 -26 4 0 23 -7 43 -16 21 -9 46 -20 57 -24 40 -16 90
-35 95 -36 3 0 12 -3 20 -7 20 -8 154 -48 177 -52 10 -2 18 -4 18 -5 0 -2 12
-4 55 -13 14 -3 32 -8 40 -11 8 -3 29 -7 45 -10 17 -2 53 -9 80 -15 28 -5 77
-13 110 -16 33 -4 69 -9 80 -11 30 -6 229 -17 310 -17 83 0 289 11 325 18 14
2 45 7 70 9 25 3 56 8 70 10 14 3 41 7 61 10 20 3 42 8 50 10 8 3 25 8 39 11
31 6 120 25 140 30 8 2 16 4 18 5 1 2 5 3 10 4 27 7 130 38 147 45 11 5 65 26
120 46 55 21 130 53 168 71 37 18 67 29 67 26 0 -4 4 -2 8 4 4 6 45 31 92 56
47 25 117 65 155 90 39 24 74 45 79 45 5 1 12 5 15 10 3 5 52 44 109 86 56 42
110 85 120 95 41 39 77 67 85 64 4 -1 7 4 7 12 0 8 9 18 20 21 11 4 18 10 15
14 -2 4 7 14 20 21 14 7 27 22 31 32 3 10 10 16 15 13 5 -4 9 1 9 9 0 9 7 16
16 16 8 0 12 5 9 10 -3 6 2 10 11 10 10 0 15 3 12 6 -8 7 28 44 43 44 5 0 8 4
4 9 -6 11 46 67 58 63 5 -1 6 2 3 7 -4 5 0 13 8 18 8 4 15 11 15 15 1 5 35 54
76 110 99 136 110 151 122 178 4 8 9 17 13 20 12 10 169 304 175 330 1 3 9 23
19 45 10 22 29 72 43 110 14 39 29 79 33 90 5 11 14 38 20 60 6 22 14 47 17
55 4 8 5 19 4 23 0 4 3 16 8 26 6 10 12 29 15 42 2 13 12 58 21 99 23 106 24
110 31 155 11 77 17 121 30 245 6 64 6 386 0 440 -3 25 -8 70 -12 100 -8 73
-19 149 -30 207 -11 61 -15 80 -20 103 -3 14 -6 26 -5 27 0 2 -5 17 -10 35
-10 33 -15 53 -23 86 -2 9 -9 28 -14 42 -5 14 -10 27 -10 30 -1 6 -10 34 -19
58 -3 9 -5 23 -4 30 1 6 -3 12 -9 12 -5 0 -9 3 -9 8 1 4 0 10 -1 15 -1 4 -3
10 -4 15 -1 4 -8 18 -15 31 -9 17 -10 21 -1 16 7 -4 5 4 -4 17 -9 14 -13 28
-9 31 3 4 1 7 -5 7 -7 0 -12 9 -12 20 0 11 -5 20 -11 20 -6 0 -9 6 -6 13 2 6
-6 28 -19 48 -13 20 -20 40 -17 43 4 3 1 6 -5 6 -6 0 -9 7 -5 17 4 10 2 14 -4
10 -6 -4 -14 0 -17 9 -3 9 -2 12 4 9 6 -4 -1 10 -15 31 -14 20 -25 43 -25 50
0 8 -5 14 -11 14 -5 0 -8 4 -5 9 3 5 -1 14 -9 21 -8 7 -15 19 -15 26 0 8 -5
14 -11 14 -5 0 -7 5 -4 10 3 6 1 10 -5 10 -6 0 -8 5 -5 10 3 6 1 10 -4 10 -6
0 -11 7 -11 15 0 9 -7 18 -15 21 -8 4 -12 10 -9 15 3 5 0 9 -7 9 -7 0 -10 3
-6 6 3 3 -5 18 -19 32 -13 15 -24 32 -24 39 0 7 -5 13 -11 13 -5 0 -8 4 -4 9
3 6 -3 14 -12 20 -10 6 -14 11 -9 11 5 0 -1 9 -14 20 -13 11 -19 20 -15 20 4
0 -2 9 -15 20 -13 11 -20 20 -17 20 4 0 -2 10 -14 23 -57 61 -73 80 -59 72 9
-6 6 -1 -7 10 -13 12 -23 25 -23 31 0 5 -14 18 -31 28 -17 10 -35 29 -41 42
-6 13 -15 24 -20 24 -5 0 -6 5 -2 12 4 6 3 8 -3 5 -5 -4 -23 8 -39 25 -16 17
-23 27 -15 23 9 -5 12 -4 7 3 -4 7 -11 12 -16 12 -5 0 -33 23 -61 50 -28 28
-55 50 -60 50 -5 0 -9 7 -9 17 0 9 -3 14 -6 10 -3 -3 -17 7 -31 24 -14 16 -31
29 -39 29 -8 0 -14 5 -14 12 0 6 -3 9 -6 5 -3 -3 -19 9 -36 26 -16 18 -27 25
-23 17 4 -10 1 -9 -8 3 -8 9 -19 17 -25 17 -6 0 -16 9 -22 20 -6 11 -17 20
-25 20 -8 0 -15 5 -15 10 0 6 -6 10 -14 10 -7 0 -21 10 -30 23 -9 12 -14 15
-10 7 6 -11 2 -11 -13 3 -11 9 -25 17 -32 17 -7 0 -9 5 -6 10 3 6 1 10 -4 10
-20 0 -26 3 -39 19 -10 12 -12 13 -6 1 4 -8 -8 -1 -26 15 -18 17 -30 24 -25
17 6 -11 3 -12 -14 -3 -11 7 -21 16 -21 22 0 6 -4 7 -10 4 -5 -3 -10 -1 -10 6
0 7 -3 9 -7 6 -3 -4 -12 1 -20 11 -9 10 -12 11 -7 2 4 -8 -5 -4 -21 10 -16 14
-25 19 -20 12 10 -19 -30 2 -64 32 -13 11 -21 15 -17 9 5 -9 2 -11 -8 -7 -9 3
-16 10 -16 16 0 5 -4 7 -9 4 -4 -3 -19 3 -31 14 -25 22 -35 26 -25 10 4 -6 -9
-2 -28 9 -19 11 -38 17 -41 14 -3 -4 -6 -1 -6 6 0 7 -4 10 -9 6 -5 -3 -12 -1
-16 5 -4 6 -10 8 -15 5 -5 -3 -11 -1 -15 5 -4 6 -11 8 -16 5 -5 -4 -9 -1 -9 5
0 6 -4 9 -9 5 -5 -3 -12 -1 -16 5 -4 6 -10 8 -15 5 -5 -3 -11 -1 -15 5 -4 6
-11 8 -16 5 -5 -4 -9 -1 -9 5 0 7 -7 9 -16 6 -9 -3 -25 0 -36 8 -11 8 -27 12
-34 9 -8 -3 -14 0 -14 6 0 6 -7 8 -15 5 -8 -4 -15 -1 -15 4 0 6 -9 9 -20 7
-11 -2 -20 -1 -20 3 0 7 -20 11 -67 13 -13 1 -23 5 -23 9 0 5 -9 7 -20 5 -11
-2 -20 0 -20 5 0 4 -10 8 -22 9 -52 2 -78 5 -78 11 0 3 -15 7 -32 8 -18 1 -50
3 -70 4 -21 2 -38 5 -38 8 0 3 -19 6 -42 8 -24 1 -81 4 -128 7 -120 8 -250 11
-254 7z m1905 -669 c13 -16 12 -17 -3 -4 -10 7 -18 15 -18 17 0 8 8 3 21 -13z"/>
</g>
</svg>
